<?xml version="1.0" encoding="iso-8859-1"?>
<!-- Generator: Adobe Illustrator 19.0.0, SVG Export Plug-In . SVG Version: 6.00 Build 0)  -->
<svg version="1.1" id="Layer_1" xmlns="http://www.w3.org/2000/svg" xmlns:xlink="http://www.w3.org/1999/xlink" x="0px" y="0px"
	 viewBox="0 0 512 512" style="enable-background:new 0 0 512 512;" xml:space="preserve" fill="white">
<g>
	<g>
		<path d="M377.683,269.154c-1.317,35.549-7.812,71.064-19.091,103.964h125.239c16.254-31.584,26.185-66.635,28.082-103.964H377.683
			z"/>
	</g>
</g>
<g>
	<g>
		<path d="M28.169,138.869C11.915,170.453,1.985,205.504,0.087,242.833h134.208c1.274-35.511,7.826-71.064,19.253-103.964H28.169z"
			/>
	</g>
</g>
<g>
	<g>
		<path d="M134.308,269.154H0.088c1.898,37.33,11.828,72.38,28.082,103.964h125.051
			C142.109,340.218,135.607,305.406,134.308,269.154z"/>
	</g>
</g>
<g>
	<g>
		<path d="M483.83,138.869H358.997c11.048,32.9,17.49,67.74,18.722,103.964h134.193C510.014,205.504,500.084,170.453,483.83,138.869
			z"/>
	</g>
</g>
<g>
	<g>
		<path d="M43.82,112.549h119.996c0.562-1.316,1.103-2.612,1.681-3.886C185.133,65.355,213.122,27.839,246.48,0
			C162.256,3.093,88.278,46.748,43.82,112.549z"/>
	</g>
</g>
<g>
	<g>
		<path d="M163.401,399.438H43.82C88.428,465.238,162.756,509.175,247.334,512C211.431,482.961,182.868,444.182,163.401,399.438z"/>
	</g>
</g>
<g>
	<g>
		<path d="M348.445,399.438c-0.494,1.316-0.967,2.331-1.473,3.465c-19.491,43.664-47.325,81.312-80.537,109.049
			c83.845-3.377,157.448-46.714,201.745-112.515H348.445z"/>
	</g>
</g>
<g>
	<g>
		<path d="M265.573,0.021c35.645,29.1,63.996,67.784,83.31,112.528h119.299C423.732,46.748,349.776,3.131,265.573,0.021z"/>
	</g>
</g>
<g>
	<g>
		<path d="M160.641,269.154c1.403,36.519,8.463,72.38,20.476,103.964H330.54c12.124-32.9,19.354-67.911,20.809-103.964H160.641z"/>
	</g>
</g>
<g>
	<g>
		<path d="M256.113,26.487c-25.742,23.305-47.172,53.161-63.191,86.062h127.109C304.062,79.649,282.446,49.774,256.113,26.487z"/>
	</g>
</g>
<g>
	<g>
		<path d="M331.125,138.869H181.675c-12.313,32.9-19.628,67.995-21.04,103.964h190.751
			C350.055,206.347,343.066,171.769,331.125,138.869z"/>
	</g>
</g>
<g>
	<g>
		<path d="M192.282,399.439c16.107,32.899,37.896,62.847,64.436,86.092c25.559-23.183,46.831-53.192,62.718-86.092H192.282z"/>
	</g>
</g>
<g>
</g>
<g>
</g>
<g>
</g>
<g>
</g>
<g>
</g>
<g>
</g>
<g>
</g>
<g>
</g>
<g>
</g>
<g>
</g>
<g>
</g>
<g>
</g>
<g>
</g>
<g>
</g>
<g>
</g>
</svg>
