<?xml version="1.0" encoding="iso-8859-1"?>
<!-- Generator: Adobe Illustrator 19.0.0, SVG Export Plug-In . SVG Version: 6.00 Build 0)  -->
<svg version="1.1" id="Capa_1" xmlns="http://www.w3.org/2000/svg" xmlns:xlink="http://www.w3.org/1999/xlink" x="0px" y="0px"
	 viewBox="0 0 56 56" style="enable-background:new 0 0 56 56;" xml:space="preserve">
<g>
	<path d="M39.632,0H17.368C14.408,0,12,2.408,12,5.368V7c-0.552,0-1,0.447-1,1v1c0,0.553,0.448,1,1,1v1c-0.552,0-1,0.447-1,1v1
		c0,0.553,0.448,1,1,1v1c-0.552,0-1,0.447-1,1v1c0,0.553,0.448,1,1,1v32.632C12,53.592,14.408,56,17.368,56h22.264
		C42.592,56,45,53.592,45,50.632V5.368C45,2.408,42.592,0,39.632,0z M43,50.632C43,52.489,41.489,54,39.632,54H17.368
		C15.511,54,14,52.489,14,50.632V5.368C14,3.511,15.511,2,17.368,2h22.264C41.489,2,43,3.511,43,5.368V50.632z"/>
	<path  d="M29,6h3c0.552,0,1-0.447,1-1s-0.448-1-1-1h-3c-0.552,0-1,0.447-1,1S28.448,6,29,6z"/>
	<path  d="M25,6c0.26,0,0.52-0.11,0.71-0.29C25.89,5.52,26,5.26,26,5s-0.11-0.521-0.29-0.71c-0.38-0.37-1.04-0.37-1.42,0
		C24.11,4.479,24,4.729,24,5c0,0.26,0.11,0.52,0.29,0.71C24.48,5.89,24.74,6,25,6z"/>
	<circle cx="28.5" cy="50.5" r="2.5"/>
	<path  fill="#ffffff" d="M15,47h27V7H15V47z M31.293,11.293l1-1c0.391-0.391,1.023-0.391,1.414,0s0.391,1.023,0,1.414l-1,1
		C32.512,12.902,32.256,13,32,13s-0.512-0.098-0.707-0.293C30.902,12.316,30.902,11.684,31.293,11.293z M30.71,13.29
		C30.89,13.479,31,13.74,31,14s-0.11,0.52-0.29,0.71C30.52,14.89,30.26,15,30,15c-0.26,0-0.52-0.11-0.71-0.29
		C29.11,14.52,29,14.27,29,14c0-0.271,0.11-0.521,0.29-0.71C29.66,12.92,30.34,12.92,30.71,13.29z M27.293,10.293
		c0.391-0.391,1.023-0.391,1.414,0s0.391,1.023,0,1.414l-3,3C25.512,14.902,25.256,15,25,15s-0.512-0.098-0.707-0.293
		c-0.391-0.391-0.391-1.023,0-1.414L27.293,10.293z M18.293,14.293l4-4c0.391-0.391,1.023-0.391,1.414,0s0.391,1.023,0,1.414l-4,4
		C19.512,15.902,19.256,16,19,16s-0.512-0.098-0.707-0.293C17.902,15.316,17.902,14.684,18.293,14.293z M24,16
		c0,0.26-0.11,0.52-0.29,0.71C23.52,16.89,23.26,17,23,17c-0.26,0-0.52-0.11-0.71-0.29C22.11,16.52,22,16.26,22,16
		s0.11-0.521,0.29-0.71c0.37-0.37,1.04-0.37,1.42,0C23.89,15.479,24,15.74,24,16z M18.293,19.293l2-2
		c0.391-0.391,1.023-0.391,1.414,0s0.391,1.023,0,1.414l-2,2C19.512,20.902,19.256,21,19,21s-0.512-0.098-0.707-0.293
		C17.902,20.316,17.902,19.684,18.293,19.293z M18.293,24.293l9-9c0.391-0.391,1.023-0.391,1.414,0s0.391,1.023,0,1.414l-9,9
		C19.512,25.902,19.256,26,19,26s-0.512-0.098-0.707-0.293C17.902,25.316,17.902,24.684,18.293,24.293z"/>
</g>
<g>
</g>
<g>
</g>
<g>
</g>
<g>
</g>
<g>
</g>
<g>
</g>
<g>
</g>
<g>
</g>
<g>
</g>
<g>
</g>
<g>
</g>
<g>
</g>
<g>
</g>
<g>
</g>
<g>
</g>
</svg>
